<?xml version="1.0" standalone="no"?><!DOCTYPE svg PUBLIC "-//W3C//DTD SVG 1.1//EN" "http://www.w3.org/Graphics/SVG/1.1/DTD/svg11.dtd"><svg t="1544526819817" class="icon" style="" viewBox="0 0 1408 1024" version="1.1" xmlns="http://www.w3.org/2000/svg" p-id="7693" xmlns:xlink="http://www.w3.org/1999/xlink" width="275" height="200"><defs><style type="text/css"></style></defs><path d="M1100.16 621.632c20.608 10.24 30.912 27.84 30.912 52.672v235.52a61.632 61.632 0 0 1-13.888 40.32 44.032 44.032 0 0 1-35.648 17.024H320.64a42.56 42.56 0 0 1-34.112-17.088 61.632 61.632 0 0 1-13.952-40.32V674.368c0-24.832 10.368-42.368 31.04-52.672l213.76-99.2 83.712-38.72C561.92 459.904 531.968 425.856 511.36 381.44a276.864 276.864 0 0 1-29.44-125.504c0-13.44 1.024-26.368 3.072-38.784a360.96 360.96 0 0 1 7.744-35.648c14.464-52.672 40.576-96 78.272-130.112 37.76-34.112 81.344-51.2 130.944-51.2 50.56 0 95.04 17.6 133.248 52.736 38.208 35.136 64 79.552 77.44 133.248 5.184 25.856 7.808 49.088 7.808 69.76a297.6 297.6 0 0 1-24.832 119.296c-20.608 46.464-50.56 81.6-89.856 105.344l88.32 41.856 206.08 99.2zM272.64 556.544a118.784 118.784 0 0 0-53.44 47.232c-12.928 21.184-19.392 44.672-19.392 70.528v199.872H40.32a34.496 34.496 0 0 1-27.904-13.184 50.688 50.688 0 0 1-10.88-33.28V638.656c0-22.72 8.32-37.184 24.832-43.392l240.128-111.552a192.576 192.576 0 0 1-69.696-75.2 226.304 226.304 0 0 1-26.368-109.184c0-27.904 4.672-54.528 13.952-79.808 9.344-25.344 21.952-47.296 37.952-65.92 16-18.56 34.624-33.28 55.808-44.16 21.12-10.816 44.16-16.256 68.928-16.256 16.576 0 32 2.56 46.528 7.808 14.464 5.12 28.416 11.84 41.856 20.096A356.096 356.096 0 0 0 408.96 256c0 36.16 5.12 71.04 15.488 104.576 10.304 33.536 24.768 63.808 43.392 90.624a154.112 154.112 0 0 1-35.648 29.44L272.64 556.544z m1109.504 38.72c16.512 8.32 24.768 22.72 24.768 43.392v189.056c0 13.44-3.648 24.512-10.88 33.28a34.496 34.496 0 0 1-27.84 13.184H1203.84v-199.872c0-25.856-6.4-49.344-19.328-70.528a120.576 120.576 0 0 0-51.904-47.232L979.2 483.712A163.648 163.648 0 0 1 937.408 448c17.536-26.88 31.232-56.576 41.088-89.088 9.792-32.576 14.72-66.88 14.72-103.04a344 344 0 0 0-24.768-131.712 192 192 0 0 1 43.328-22.464c15.488-5.76 31.488-8.576 48-8.576 24.832 0 48.064 5.44 69.76 16.32 21.76 10.88 40.576 25.6 56.576 44.16 16 18.56 28.672 40.512 37.952 65.856 9.28 25.28 13.952 51.84 13.952 79.808 0 39.232-8.768 75.136-26.304 107.648-17.6 32.576-39.808 57.6-66.688 75.2L1382.144 595.2z" p-id="7694"></path></svg>