<?xml version="1.0" standalone="no"?><!DOCTYPE svg PUBLIC "-//W3C//DTD SVG 1.1//EN" "http://www.w3.org/Graphics/SVG/1.1/DTD/svg11.dtd"><svg t="1544526874604" class="icon" style="" viewBox="0 0 1024 1024" version="1.1" xmlns="http://www.w3.org/2000/svg" p-id="8447" xmlns:xlink="http://www.w3.org/1999/xlink" width="200" height="200"><defs><style type="text/css"></style></defs><path d="M512 85.312a21.056 21.056 0 0 0-20.736 21.376c0 11.776 9.28 21.312 20.736 21.312 11.456 0 20.736-9.6 20.736-21.312a21.056 21.056 0 0 0-20.736-21.376zM801.92 128H615.488v-21.312C615.552 47.872 569.088 0 512 0c-57.088 0-103.552 47.872-103.552 106.688V128H222.144C187.84 128 160 156.736 160 192v768c0 35.264 27.84 64 62.08 64h579.84c34.24 0 62.08-28.736 62.08-64V192c0-35.264-27.84-64-62.08-64z m-352-21.312c0-35.328 27.84-64 62.08-64 34.24 0 62.08 28.672 62.08 64v106.624H449.92V106.688z m227.712 704c11.456 0 20.736 9.536 20.736 21.312a21.056 21.056 0 0 1-20.736 21.312H346.368A21.056 21.056 0 0 1 325.632 832c0-11.776 9.28-21.312 20.736-21.312h331.264zM594.816 896c11.456 0 20.736 9.6 20.736 21.312a21.056 21.056 0 0 1-20.736 21.376H429.184a21.056 21.056 0 0 1-20.736-21.376c0-11.776 9.28-21.312 20.736-21.312h165.632z m59.392-262.4c50.368 12.992 85.504 59.392 85.504 112.896a21.056 21.056 0 0 1-20.672 21.312L304.96 768a20.544 20.544 0 0 1-14.72-6.208 21.568 21.568 0 0 1-6.016-15.104c0-53.504 35.2-99.968 85.504-112.896l62.208-16 3.008-12.544a144.384 144.384 0 0 1-30.592-63.68 38.912 38.912 0 0 1-22.912-31.104l-4.48-37.12a40.832 40.832 0 0 1 17.664-38.656 380.48 380.48 0 0 1-2.368-31.232c0-35.712 9.984-83.008 95.232-86.144 28.928-18.688 58.688-18.688 71.872-18.688 44.8 0 67.072 20.416 77.952 37.44 22.912 36.032 8.448 60.992-2.24 72.704l-3.84 3.904-1.024 22.592a40.768 40.768 0 0 1 16.832 37.952l-4.544 37.12a40 40 0 0 1-20.736 30.528c-4.736 24.32-16.192 47.744-32.32 66.048l2.56 10.752 62.208 16z" p-id="8448"></path></svg>