<?xml version="1.0" standalone="no"?><!DOCTYPE svg PUBLIC "-//W3C//DTD SVG 1.1//EN" "http://www.w3.org/Graphics/SVG/1.1/DTD/svg11.dtd"><svg t="1544526603193" class="icon" style="" viewBox="0 0 1024 1024" version="1.1" xmlns="http://www.w3.org/2000/svg" p-id="4811" xmlns:xlink="http://www.w3.org/1999/xlink" width="200" height="200"><defs><style type="text/css"></style></defs><path d="M341.397333 256c0-94.272 76.394667-170.666667 170.666667-170.666667s170.666667 76.394667 170.666667 170.666667-76.394667 170.666667-170.666667 170.666667S341.397333 350.272 341.397333 256zM739.669333 483.562667l-31.466667 0-176.981333 359.317333L597.397333 512l-85.333333-85.333333-85.333333 85.333333 66.154667 330.858667-176.981333-359.317333-31.509333 0C170.666667 483.562667 170.666667 560.021333 170.666667 654.229333L170.666667 938.666667l682.666667 0L853.333333 654.229333c0-94.208 0-170.666667-113.728-170.666667L739.669333 483.562667z" p-id="4812"></path></svg>