<?xml version="1.0" standalone="no"?><!DOCTYPE svg PUBLIC "-//W3C//DTD SVG 1.1//EN" "http://www.w3.org/Graphics/SVG/1.1/DTD/svg11.dtd"><svg t="1544528342863" class="icon" style="" viewBox="0 0 1024 1024" version="1.1" xmlns="http://www.w3.org/2000/svg" p-id="8557" xmlns:xlink="http://www.w3.org/1999/xlink" width="200" height="200"><defs><style type="text/css"></style></defs><path d="M56.888889 113.777778h910.222222a56.888889 56.888889 0 0 1 56.888889 56.888889v682.666666a56.888889 56.888889 0 0 1-56.888889 56.888889H56.888889a56.888889 56.888889 0 0 1-56.888889-56.888889V170.666667a56.888889 56.888889 0 0 1 56.888889-56.888889z m339.569778 448.711111c-11.889778-5.205333-44.856889-14.051556-48.810667-29.041778-6.229333-23.694222 17.408-41.784889 27.875556-60.416 11.093333-19.683556 20.309333-46.307556 22.101333-68.551111 6.485333-79.928889-42.496-126.634667-112.725333-118.556444-51.029333 5.859556-81.550222 43.946667-84.821334 92.956444-3.356444 49.948444 15.160889 86.840889 34.844445 113.891556 8.618667 11.832889 17.635556 19.456 16.270222 33.706666-1.621333 16.839111-19.626667 21.532444-32.512 26.737778-15.303111 6.115556-31.744 15.445333-39.537778 19.740444-26.737778 14.791111-56.120889 32.597333-62.748444 56.945778-14.620444 53.987556 34.787556 70.343111 75.548444 77.880889 34.986667 6.456889 74.439111 6.940444 106.894222 6.940445 58.709333 0 164.266667-2.332444 181.304889-46.478223 4.835556-12.515556 2.759111-32.483556 0-40.675555-10.695111-31.829333-53.304889-51.740444-83.683555-65.080889z" fill="#464C56" p-id="8558"></path><path d="M625.777778 312.888889h227.555555a28.444444 28.444444 0 0 1 28.444445 28.444444v28.444445a28.444444 28.444444 0 0 1-28.444445 28.444444h-227.555555a28.444444 28.444444 0 0 1-28.444445-28.444444v-28.444445a28.444444 28.444444 0 0 1 28.444445-28.444444z m0 142.222222h142.222222a28.444444 28.444444 0 0 1 28.444444 28.444445v28.444444a28.444444 28.444444 0 0 1-28.444444 28.444444h-142.222222a28.444444 28.444444 0 0 1-28.444445-28.444444v-28.444444a28.444444 28.444444 0 0 1 28.444445-28.444445z m0 142.222222h227.555555a28.444444 28.444444 0 0 1 28.444445 28.444445v28.444444a28.444444 28.444444 0 0 1-28.444445 28.444445h-227.555555a28.444444 28.444444 0 0 1-28.444445-28.444445v-28.444444a28.444444 28.444444 0 0 1 28.444445-28.444445z" fill="#969FA9" p-id="8559"></path></svg>