<?xml version="1.0" standalone="no"?><!DOCTYPE svg PUBLIC "-//W3C//DTD SVG 1.1//EN" "http://www.w3.org/Graphics/SVG/1.1/DTD/svg11.dtd"><svg t="1544529367806" class="icon" style="" viewBox="0 0 1553 1024" version="1.1" xmlns="http://www.w3.org/2000/svg" p-id="10433" xmlns:xlink="http://www.w3.org/1999/xlink" width="303.3203125" height="200"><defs><style type="text/css"></style></defs><path d="M1417.81609231 62H114.36781624a31.03448291 31.03448291 0 0 0-31.03448291 31.03448291v837.93103418a31.03448291 31.03448291 0 0 0 31.03448291 31.03448291h1303.44827607a31.03448291 31.03448291 0 0 0 31.03448204-31.03448291V93.03448291a31.03448291 31.03448291 0 0 0-31.03448204-31.03448291zM446.12643675 217.17241367a148.34482734 148.34482734 0 1 1-148.34482735 148.34482735A148.65517266 148.65517266 0 0 1 446.12643675 217.17241367z m191.17241367 512.06896582v62.06896494H254.95402307A43.13793076 43.13793076 0 0 1 212.12643675 744.75862051a234.62068974 234.62068974 0 0 1 437.2758624-102.41379317l-53.68965556 31.03448292a172.55172393 172.55172393 0 0 0-319.34482735 55.86206923zM1231.60919573 775.79310342H859.19540257v-62.06896582h372.41379316z m0-248.2758624H859.19540257v-62.06896495h372.41379316z m0-248.27586152h-248.2758624V217.17241367h248.2758624z" fill="#707070" p-id="10434"></path><path d="M446.12643675 451.48275898a86.2758624 86.2758624 0 1 0-86.2758624-85.96551796 86.2758624 86.2758624 0 0 0 86.2758624 85.96551796z" fill="#707070" p-id="10435"></path></svg>