<?xml version="1.0" standalone="no"?><!DOCTYPE svg PUBLIC "-//W3C//DTD SVG 1.1//EN" "http://www.w3.org/Graphics/SVG/1.1/DTD/svg11.dtd"><svg t="1544526425039" class="icon" style="" viewBox="0 0 1024 1024" version="1.1" xmlns="http://www.w3.org/2000/svg" p-id="1519" xmlns:xlink="http://www.w3.org/1999/xlink" width="200" height="200"><defs><style type="text/css"></style></defs><path d="M990.577285 906.513192c0 40.59251-31.844266 72.429613-72.444962 72.429613-40.544415 0-72.335469-31.843242-72.335469-72.429613l0-9.869788-225.509057 0 0 9.869788c0 40.59251-31.787984 72.429613-72.38868 72.429613s-72.430636-31.843242-72.430636-72.429613l0-9.869788-30.831192 0 0-163.92649c0-37.974893 25.381064-70.385047 60.181661-79.961146l20.581758-90.286306c14.598486-47.743374 48.225351-57.468876 73.883731-57.468876l267.443122 0c37.918611 0 66.265216 21.227464 75.745125 56.68707l19.71911 91.503017c34.232662 10.29753 59.229986 42.659589 59.229986 79.526241l0 163.92649-30.831192 0 0 9.869788L990.577285 906.513192 990.577285 906.513192zM887.741151 906.513192c0 17.08819 13.351076 30.450523 30.391171 30.450523 17.10047 0 30.499641-13.368472 30.499641-30.450523l0-9.91686-60.890812 0L887.741151 906.513192 887.741151 906.513192 887.741151 906.513192zM517.400498 906.513192c0 17.08819 13.410428 30.450523 30.499641 30.450523 17.046235 0 30.443359-13.368472 30.443359-30.450523l0-9.91686-60.950164 0 0 9.91686L517.400498 906.513192 517.400498 906.513192zM901.723607 571.468416c-4.317329-15.898085-16.180518-24.51637-34.996049-24.51637l-267.448238 0c-18.475793 0-27.480888 7.137561-33.373085 26.324552l-17.184381 75.515904 369.465726 0L901.723607 571.468416 901.723607 571.468416 901.723607 571.468416zM979.463156 732.716914c0-20.826328-16.081257-38.778188-36.635385-40.83708l-11.583826-1.155313-392.05828 0-0.046049 0.191358-15.609513 1.00591c-21.069875 1.38658-36.960797 18.914792-36.960797 40.788985l0 121.933073 489.066685 0 0 0.055259 3.827165 0L979.463156 732.716914 979.463156 732.716914 979.463156 732.716914zM897.550565 813.95617c-22.606881 0-41.133839-18.527982-41.133839-41.11542 0-22.654976 18.526959-41.135886 41.133839-41.135886 22.594601 0 41.122583 18.481933 41.122583 41.135886C938.673148 795.428188 920.153352 813.95617 897.550565 813.95617L897.550565 813.95617 897.550565 813.95617zM897.550565 752.244666c-11.352559 0-20.533662 9.244548-20.533662 20.596084 0 11.30344 9.18929 20.532639 20.533662 20.532639 11.296277 0 20.573571-9.223059 20.573571-20.532639C918.132322 761.490238 908.846842 752.244666 897.550565 752.244666L897.550565 752.244666 897.550565 752.244666zM568.433802 813.95617c-22.657023 0-41.137932-18.527982-41.137932-41.11542 0-22.654976 18.481933-41.135886 41.137932-41.135886 22.598694 0 41.177841 18.481933 41.177841 41.135886C609.611643 795.428188 591.040682 813.95617 568.433802 813.95617L568.433802 813.95617 568.433802 813.95617zM568.433802 752.244666c-11.304464 0-20.594037 9.244548-20.594037 20.596084 0 11.30344 9.289574 20.532639 20.594037 20.532639 11.302417 0 20.587897-9.223059 20.587897-20.532639C589.029886 761.490238 579.744405 752.244666 568.433802 752.244666L568.433802 752.244666 568.433802 752.244666z" p-id="1520"></path><path d="M368.599498 498.305093 368.599498 604.741217 261.835915 604.741217 261.835915 498.305093 368.599498 498.305093 368.599498 498.305093Z" p-id="1521"></path><path d="M807.394219 458.039018l81.764212 0c-7.618515-6.696516-17.070794-11.404748-27.509541-13.417591l-393.521608-392.739802c-9.094122-9.101285-18.195408-9.101285-27.28953 0l-393.935024 393.173684c-51.383274 6.708795-43.949978 54.003961-43.949978 54.003961 0 31.220049 25.282826 44.313252 56.543807 44.313252l56.539714 0 0 68.777433 0 282.82853c0 31.212886 25.318642 56.531528 56.591903 56.531528l222.632543 0 0-46.517453-233.085616 0 0-405.906683-100.210329 0 393.171638-394.051681L807.394219 458.039018z" p-id="1522"></path><path d="M115.805004 612.149954l0.237407 0c-0.090051 0-0.1361 0.10847-0.237407 0.10847L115.805004 612.149954 115.805004 612.149954 115.805004 612.149954z" p-id="1523"></path></svg>